<svg width="23" height="20" viewBox="0 0 23 20" fill="none" xmlns="http://www.w3.org/2000/svg">
<path d="M14.6554 11.3514C15.0877 11.3514 15.5022 11.1969 15.8078 10.922C16.1135 10.6471 16.2852 10.2742 16.2852 9.88533C16.2852 9.4965 16.1135 9.1236 15.8078 8.84865C15.5022 8.57371 15.0877 8.41925 14.6554 8.41925H1.76312C1.33087 8.41925 0.91633 8.57371 0.610686 8.84865C0.305041 9.1236 0.133331 9.4965 0.133331 9.88533C0.133331 10.2742 0.305041 10.6471 0.610686 10.922C0.91633 11.1969 1.33087 11.3514 1.76312 11.3514H14.6554Z" fill="white"/>
<path d="M22.82 2.17024C22.8179 1.78198 22.6456 1.41015 22.3404 1.13561C22.0352 0.861068 21.6218 0.706013 21.1902 0.704163H1.76312C1.33087 0.704163 0.91633 0.858624 0.610685 1.13357C0.305041 1.40851 0.133331 1.78141 0.133331 2.17024C0.133331 2.55907 0.305041 2.93197 0.610685 3.20691C0.91633 3.48185 1.33087 3.63632 1.76312 3.63632H21.1902C21.621 3.63205 22.0328 3.47621 22.3374 3.20219C22.642 2.92817 22.8153 2.55774 22.82 2.17024Z" fill="white"/>
<path d="M1.76312 19.0665H10.2511C10.6833 19.0665 11.0979 18.912 11.4035 18.6371C11.7091 18.3621 11.8809 17.9892 11.8809 17.6004C11.8809 17.2116 11.7091 16.8387 11.4035 16.5637C11.0979 16.2888 10.6833 16.1343 10.2511 16.1343H1.76312C1.33087 16.1343 0.91633 16.2888 0.610685 16.5637C0.305041 16.8387 0.133331 17.2116 0.133331 17.6004C0.133331 17.9892 0.305041 18.3621 0.610685 18.6371C0.91633 18.912 1.33087 19.0665 1.76312 19.0665Z" fill="white"/>
</svg>
